<svg id="Logo" xmlns="http://www.w3.org/2000/svg" viewBox="0 0 1024 1024"><defs><style>.cls-1{fill:#555;}.cls-2{fill:#dedede;}.cls-3{fill:#4aa870;}.cls-4{fill:#333;}.cls-5,.cls-6{fill:#fff;}.cls-6,.cls-7{opacity:0.08;}</style></defs><g id="offset"><path class="cls-1" d="M1016.08,741.31A44.69,44.69,0,0,0,983,706.48l-33.37-8.24c8.07-12.42,10.26-15.88,11.19-17.5h0a67.36,67.36,0,0,0-40.55-97.82c23.86-82.28,35.33-175.94,35-284.71a40,40,0,0,0-23.65-36.37c-47.34-21.2-86.27-51.87-115.71-91.17-22.13-29.55-31.36-54.31-33.23-61.27a40,40,0,0,0-39.81-36l-460.26,0a40,40,0,0,0-39.75,35.63c-1.84,6.87-11.09,31.76-33.16,61.32-29.43,39.4-68.43,70.18-115.92,91.46a40,40,0,0,0-23.64,36.41c-.25,109.23,11.43,203,35.63,285A67.37,67.37,0,0,0,68.76,684.5c1.49,2.31,3.19,4.93,5,7.79C63,694.85,54.51,697,47.8,699c-8.45,2.63-34.17,10.63-39,38-1.7,9.66-1.49,28.36,19.1,45,5,4.06,11.06,8,18.68,13,8.09,5.28,17.67,11.53,28.78,19.66-8.22,24.28-24,70.74-24.93,73.55l-.07.2a44.73,44.73,0,0,0,42.23,59h0a44.76,44.76,0,0,0,11.56-1.53l.61-.17c78.35-22.37,170.2-45.54,198.78-46.89a39.92,39.92,0,0,0,23.41-9c25.44,16.39,48.64,29.24,70.87,39.3C439.28,947.91,478,957,516.19,957h0c39.53,0,79.24-9.79,121.41-29.94A510.06,510.06,0,0,0,695.85,894a40,40,0,0,0,25.38,10.68c24.64,1.17,102.69,19.56,198.84,46.86a44.26,44.26,0,0,0,12.08,1.69h0a43.79,43.79,0,0,0,32.65-14.69c6.61-7.41,14-20.6,11.61-41.31a39.59,39.59,0,0,0-1.85-8.27L951.12,819.8l46.94-33.3A45,45,0,0,0,1016.08,741.31Z"/></g><g id="Escudo_cópia" data-name="Escudo cópia"><path class="cls-2" d="M181.81,594.31c-25.41-72.91-41.42-163.85-41.37-277.4C275.21,250.49,302.61,145,302.61,145H721.16S748.5,250.49,883.32,316.91c0,108.25-14.23,195.93-37.18,267q-1.62,4.9-3.22,9.65c-30.3,88.81-74.27,150.79-120.23,194-1.94,1.89-3.88,3.68-5.82,5.41,0,.05,0,0,0,0-75,67.9-153.9,87.13-186.34,92.43a97,97,0,0,1-30.56,0c-32.09-5.1-109.73-23.51-184.66-87.79-1.84-1.53-3.62-3.11-5.41-4.74h-.05c-47-41.83-92.43-102-124.37-188.64C184.21,601,183,597.68,181.81,594.31Z"/><path class="cls-3" d="M742.05,112.62c-.58,9.45,37.14,124.39,172.4,185,.69,199.13-39.78,391.28-180.69,519.28C558.06,950,472.73,948.72,295.54,819h0C150.61,690.83,108.85,500.1,109.31,297.58c135.36-60.66,172.8-175.43,172.48-184.91M307.55,788h.06c165.47,128.43,247.65,131,412.7-1,123-118.23,160.18-288.59,162.45-469.09C770.07,259.16,729.88,175.85,718.34,145H305.43C293.88,175.84,253.66,259.16,141,317.87c.8,103.74,15,195.85,42.17,273.89h0C210.23,670,253,738.34,307.55,788Z"/><path class="cls-1" d="M847.39,330.1C735.24,280.52,704.05,185.86,704.1,176H331.24l-12.2.06c.11,9.22-31.51,104.83-143.38,154C175,499.32,209.94,659.16,331.43,766h.06C488.92,879.31,547.84,870.06,704,760.78v-3.69C815.94,650,848.19,492.93,847.39,330.1Z"/></g><g id="Bola"><path class="cls-4" d="M518.19,172A299.63,299.63,0,0,0,218.44,457.67c-.22,4.77-.33,9.6-.33,14.43,0,165.46,134.61,300.08,300.08,300.08A300,300,0,0,0,817.1,498.1c.77-8.56,1.17-17.31,1.17-26C818.27,306.63,683.65,172,518.19,172Z"/><path class="cls-5" d="M536.84,305.88c.17-16.5-.06-49.25-.2-66a14.78,14.78,0,0,1,9.62-14L610.5,202a19.06,19.06,0,0,1,14.22.36c17.58,7.57,64.11,29.9,105.35,69.45a19.15,19.15,0,0,1,5.93,13.8V365a10.65,10.65,0,0,1-8,10.31l-70.21,18.1A19.06,19.06,0,0,1,642,390.53L551.05,326C539.77,318,536.78,312.1,536.84,305.88Z"/><path class="cls-5" d="M516.45,305.39c-.17-16.63.07-49.66.2-66.26a14.29,14.29,0,0,0-9.34-13.52l-63.73-23.72a19.07,19.07,0,0,0-15.37.9c-19.32,10-71.84,39-114,79.72a19,19,0,0,0-5.7,13.16c-1.15,40.52-1.6,67.37-1.75,78.07a6.1,6.1,0,0,0,5.12,6.09l84.43,14.11a19.06,19.06,0,0,0,14.2-3.27l97.94-69.55A19,19,0,0,0,516.45,305.39Z"/><path class="cls-5" d="M664,410.6c18.17-4.3,55.75-13.64,74.4-18.29A19.08,19.08,0,0,1,757,397.94l41.43,45.18a19.14,19.14,0,0,1,5,11.39c1.67,20.14-1.16,80.41-27.55,133.71-2.45,5-7.1,7.95-12.14,10.23-40.4,18.25-71.19,33-90.24,35a19,19,0,0,1-18.36-9.29l-42.37-73.24a19.08,19.08,0,0,1-1.59-16l39.17-112A19,19,0,0,1,664,410.6Z"/><path class="cls-5" d="M386.44,410.6c-18.16-4.3-61.87-9.8-80.53-14.45a19.06,19.06,0,0,0-18.67,5.63l-41.19,48.6a19.16,19.16,0,0,0-5,11.39c-1.67,20.15,1.81,74.65,28.2,128,2.45,5,7,8.25,12.14,10.23,47.28,18.11,70.22,24.22,89.27,26.21a19.07,19.07,0,0,0,18.37-9.29l48.57-66a19.08,19.08,0,0,0,1.58-16l-39.17-112A19,19,0,0,0,386.44,410.6Z"/><path class="cls-5" d="M404.35,628.23l49.27-69.72A10.44,10.44,0,0,1,462,554l125.87.45a13.43,13.43,0,0,1,12,7l38,67a21.19,21.19,0,0,1,1.23,17.64l-29,67.69c-2.18,5.78-6.66,10.73-12.6,12.44-60.34,17.39-90.2,18.31-145.52,3.39-6.2-1.67-10.1-6.53-13.84-12.45l-36.6-70.58A21.17,21.17,0,0,1,404.35,628.23Z"/><path class="cls-6" d="M546.72,650.73a6.15,6.15,0,0,1-3.23,8.9l-23.77,14.15"/></g><g id="Sombra_Brilho" data-name="Sombra/Brilho"><path class="cls-6" d="M453.36,532.37a5.31,5.31,0,0,1-5-3.54L410.57,422.38a24.64,24.64,0,0,1,9.07-27.67L505,333.51a24.73,24.73,0,0,1,28.33-.28l96.11,66a5.31,5.31,0,1,1-6,8.75l-97.18-60.42a14.06,14.06,0,0,0-16.12.16l-78.68,58.09a14,14,0,0,0-5.19,15.66l32.13,103.76a5.32,5.32,0,0,1-3.23,6.78A5.56,5.56,0,0,1,453.36,532.37Z"/><path class="cls-6" d="M254.37,398.43l16.71-54.59a2,2,0,0,1,3.71-.37l9.2,31.17c2,3.88.4,8.88-3.23,10.39L257,401.55C255.34,402.25,253.74,400.35,254.37,398.43Z"/><path class="cls-6" d="M488.87,192h71.2a2.42,2.42,0,0,1,2,3.9l-28.44,19c-2.81,3.68-10.24,1.89-15.49-.7l-31.09-18.1A2.47,2.47,0,0,1,488.87,192Z"/><path class="cls-6" d="M761,337.66l30.36,61.82a2.2,2.2,0,0,1-2.56,3.25l-32.73-18.5c-4.46-1.25-6.61-11.62-5-15.64l5.53-31.09C757.38,335.67,760,335.76,761,337.66Z"/><path class="cls-7" d="M529.3,575.09c-142.18,0-264.08-17.86-297.6-116.8-.21,4.57-.31,9.19-.31,13.81,0,158.43,128.37,286.8,286.8,286.8,150,0,273.15-115.15,285.68-262C755.81,575.66,652.25,575.09,529.3,575.09Z"/></g><g id="Título"><path class="cls-3" d="M301.65,858.85c-42.81,2-173.46,38.56-207.88,48.39A4.69,4.69,0,0,1,88.3,901L92,890.08l26-76.8a17.14,17.14,0,0,0,.69-2.76,18.94,18.94,0,0,0-7.49-18.91L49.85,748c-3.29-2.34-2.34-7.65,1.49-8.55l68-16.78,6.11,9.72L186,828.74a25,25,0,0,0,26.13,11.47c12-2.39,31-5.89,57.94-9.51l12.32,10.95Z"/><path class="cls-3" d="M974.15,753.11l-61.4,43.55c-6.74,4.83-9.51,13.7-6.58,16.62L935.91,901c1,8.77-2.13,12.27-5.68,11.26C895.81,902.51,765.16,866,722.35,864l24-21.35,7.6-6.8c26.93,3.62,45.89,7.07,57.94,9.51A25.08,25.08,0,0,0,838,833.84l66.61-106.07,50.24,12.38,17.79,4.41C976.49,745.46,977.44,750.77,974.15,753.11Z"/><path class="cls-3" d="M925.18,660.37c-.27.54-.64,1.07-1,1.61L826.88,811.27a23.87,23.87,0,0,1-24.61,10.44c-17-3.32-48.53-8.78-97.92-13.33-46.77-4.33-109.65-7.81-191.46-7.81-102.74,0-175.62,5.51-224.32,11.24-6.15.75-11.88,1.44-17.28,2.19h-.06c-5.35.7-10.27,1.39-14.87,2.09-14.23,2.14-25,4.12-32.86,5.62a23.88,23.88,0,0,1-24.61-10.44L133.23,710.56l0,0L101.55,662A27.35,27.35,0,0,1,120,620c6.68-1.07,13.48-2.41,20.76-3.91,26.75-5.46,58.86-13.27,107.34-20.12h0c36.23-5.08,81.66-9.74,140.84-12.47,7.92-.37,16.05-.69,24.45-1,29.76-1.07,62.77-1.66,99.43-1.66,26.59,0,51.21.32,74.11.91,7.06.16,14,.37,20.65.58,59,2,105.58,5.73,143.3,10.23,32.11,3.79,57.85,8.08,79.52,12.25,31.46,6,54.26,11.77,75.29,15.2A27.34,27.34,0,0,1,925.18,660.37Z"/><path class="cls-2" d="M262.52,762.45c-.45,0-.71-.21-.76-.77L249.48,645.57a.6.6,0,0,1,.6-.75L304.32,639c.46,0,.72.21.77.78l2,18.92a.6.6,0,0,1-.6.75l-34.65,3.71,2.83,26.37,34.64-3.72a.6.6,0,0,1,.75.6l2.22,19.08a.6.6,0,0,1-.6.75L276.89,710l3.18,29.58,34.81-3.74c.45,0,.7.21.76.77l2.07,19.27a.61.61,0,0,1-.61.75Z"/><path class="cls-2" d="M323.2,756c-.45,0-.64-.23-.58-.81l14.68-62L314,638.71c-.15-.44,0-.69.46-.72l19-1.46a.93.93,0,0,1,1.07.61L349,676.6l8.43-41.22c.07-.46.39-.71,1-.76l18.81-1.44c.45,0,.63.18.56.64L363.05,691l23.8,59.2c.27.54.12.84-.44.88l-19,1.45c-.46,0-.81-.21-1.08-.76L351.47,709l-8.34,44.62a.94.94,0,0,1-.95.92Z"/><path class="cls-2" d="M396.83,750.45a.75.75,0,0,1-.89-.81L391.09,633a.6.6,0,0,1,.65-.71l32.6-1.46q15.62-.69,25.13,8.41t10.23,25.41q.53,12-3.83,21.09a35.25,35.25,0,0,1-11.79,14.14,30.83,30.83,0,0,1-16.42,5.49l-12.91.58,1.91,42.78a.76.76,0,0,1-.82.89Zm17-65.06,12.9-.57q5.44-.24,9.2-5.6t3.38-13.68a16.24,16.24,0,0,0-4.05-10.7,12.13,12.13,0,0,0-10-3.81l-12.9.74Z"/><path class="cls-2" d="M471.71,745.65c-.47,0-.7-.28-.71-.86l-1.29-115.93a.84.84,0,0,1,.84-.86l20.59-.22a.86.86,0,0,1,.86.84L493,724l35.11-.41a.85.85,0,0,1,.86.84l.23,19.71a.85.85,0,0,1-.84.86Z"/><path class="cls-2" d="M569.63,749A31.26,31.26,0,0,1,553,744a35.74,35.74,0,0,1-11.88-12.67,32.78,32.78,0,0,1-4.21-17.18l1.35-53.86a32.82,32.82,0,0,1,4.87-16.89,34.51,34.51,0,0,1,12.42-12,31.73,31.73,0,0,1,16.75-4.22,31.15,31.15,0,0,1,16.55,4.95,34.94,34.94,0,0,1,11.71,12.5,32.83,32.83,0,0,1,4.13,17.09l-1,53.86a33.23,33.23,0,0,1-4.88,17,35.19,35.19,0,0,1-12.33,12.13A31.23,31.23,0,0,1,569.63,749Zm.45-20.56a11.75,11.75,0,0,0,9-4,13.58,13.58,0,0,0,4-9.35l1-53.86a13.69,13.69,0,0,0-3.35-9.6,11.72,11.72,0,0,0-8.93-4.1,12.12,12.12,0,0,0-9.09,3.63,13.17,13.17,0,0,0-3.94,9.52l-1.19,53.86a13.59,13.59,0,0,0,3.53,9.68A11.93,11.93,0,0,0,570.08,728.47Z"/><path class="cls-2" d="M646.69,752.25a31.27,31.27,0,0,1-16.32-5.72A34.56,34.56,0,0,1,619,733.3a33.8,33.8,0,0,1-3.41-17.42l5.72-84.79a.6.6,0,0,1,.72-.63l19,1.2a.6.6,0,0,1,.63.72l-5.38,84.81a14,14,0,0,0,3,10,11.63,11.63,0,0,0,8.65,4.55,11.83,11.83,0,0,0,9.33-3.41,13.93,13.93,0,0,0,4.26-9.53L667,634a.6.6,0,0,1,.72-.64l19,1.21a.59.59,0,0,1,.63.72l-5,84.83a34.42,34.42,0,0,1-18.42,28.63A31.87,31.87,0,0,1,646.69,752.25Z"/><path class="cls-2" d="M693.08,753.75a.75.75,0,0,1-.75-.94l13.18-116a.6.6,0,0,1,.75-.6l31.61,3.33a31.6,31.6,0,0,1,16.49,6.27,34.66,34.66,0,0,1,10.89,13.6,32.86,32.86,0,0,1,2.69,17.49l-5.37,48.48a34.65,34.65,0,0,1-6.7,17.29,35.59,35.59,0,0,1-32.53,14.27Zm22.07-18.59,10.47,1.17a14.34,14.34,0,0,0,11-3.23,14.51,14.51,0,0,0,5.47-10l5.39-48.65a12.91,12.91,0,0,0-2.94-9.81,12.32,12.32,0,0,0-9-4.84l-11.85-1.14Z"/><path class="cls-7" d="M921.09,659.53c-.27.53-.64,1.06-1,1.59L823.52,809.3a23.69,23.69,0,0,1-24.43,10.36c-16.89-3.3-48.17-8.71-97.19-13.23-46.42-4.3-108.83-7.75-190-7.75-102,0-174.31,5.47-222.65,11.15-3.45-14-7.25-22.93,10.91-26.59,64.53-13.07,381.11-18.29,490.78,4.07A28.37,28.37,0,0,0,820,775.58c33.62-49.29,56.68-85.64,69.1-104.26,8-12,8.28-15.19,27-12.86A25.85,25.85,0,0,1,921.09,659.53Z"/><path class="cls-6" d="M158.09,639.16c134.77-22.76,188.81-30.61,474-30.57a5.23,5.23,0,0,0,5.22-6.2c-1.91-8.41-8.05-6.75-11.7-6.8-116.34-1.61-368.82-5.26-467.54,30.67,0,0-7.12,3.11-5.85,8.83C153.29,639.83,158.09,639.16,158.09,639.16Z"/><path class="cls-7" d="M974.15,753.11l-61.4,43.55c-6.74,4.83-9.51,13.7-6.58,16.62L935.91,901c1,8.77-2.13,12.27-5.68,11.26C895.81,902.51,765.16,866,722.35,864l24-21.35c33.09,11.21,135.52,43,141.28,35.9,5.19-6.41-6.46-73.55-2.37-85.77,2.82-8.29,43-36.81,69.61-52.58l17.79,4.41C976.49,745.46,977.44,750.77,974.15,753.11Z"/><path class="cls-6" d="M123.85,794.93c-.34,6.28-1.18,10.12-5.11,15.59a18.94,18.94,0,0,0-7.49-18.91L49.85,748c-3.29-2.34-2.34-7.65,1.49-8.55l68-16.78,6.11,9.72c-18.08,5.44-48.67,11.23-47,19C80.41,760.18,124.57,781.57,123.85,794.93Z"/><path class="cls-7" d="M301.65,858.85c-42.81,2-173.46,38.56-207.88,48.39A4.69,4.69,0,0,1,88.3,901L92,890.08c33.14-9.88,104.84-30.27,190.35-48.43Z"/></g></svg>