<svg xmlns="http://www.w3.org/2000/svg" xmlns:xlink="http://www.w3.org/1999/xlink" width="32" height="32" preserveAspectRatio="xMidYMid meet" viewBox="0 0 32 32" style="-ms-transform: rotate(360deg); -webkit-transform: rotate(360deg); transform: rotate(360deg);"><path d="M16 2a14 14 0 1 0 14 14A14 14 0 0 0 16 2zm0 5a4.5 4.5 0 1 1-4.5 4.5A4.49 4.49 0 0 1 16 7zm8 17.92a11.93 11.93 0 0 1-16 0v-.58A5.2 5.2 0 0 1 13 19h6a5.21 5.21 0 0 1 5 5.31v.61z" fill="white"/><rect x="0" y="0" width="32" height="32" fill="rgba(0, 0, 0, 0)" /></svg>